<svg xmlns="http://www.w3.org/2000/svg" viewBox="0 0 80 100" fill="none">
  <ellipse cx="40" cy="72" rx="18" ry="14" fill="#f8d7da"/>
  <path d="M28 72 Q40 58 52 72" fill="#e8a0b8"/>
  <circle cx="40" cy="42" r="28" fill="#f8d7da" stroke="#e6396f" stroke-width="1.5"/>
  <circle cx="40" cy="42" r="24" fill="#fff5f7"/>
  <circle cx="33" cy="38" r="3.5" fill="#5c3a45"/>
  <circle cx="47" cy="38" r="3.5" fill="#5c3a45"/>
  <path d="M32 48 Q40 54 48 48" stroke="#c77d9a" stroke-width="1.2" fill="none" stroke-linecap="round"/>
  <ellipse cx="30" cy="36" rx="2.5" ry="1.8" fill="#e8a0b8" opacity="0.7"/>
  <ellipse cx="50" cy="36" rx="2.5" ry="1.8" fill="#e8a0b8" opacity="0.7"/>
  <path d="M40 18c-2 2-6 2-8 0-2-2-2-6 0-8 2-2 6-2 8 0 2 2 2 6 0 8z" fill="#e6396f" transform="translate(0 4)"/>
</svg>
